<?xml version="1.0" encoding="utf-8"?>
<!-- Generator: Adobe Illustrator 27.1.1, SVG Export Plug-In . SVG Version: 6.00 Build 0)  -->
<svg version="1.1" xmlns="http://www.w3.org/2000/svg" xmlns:xlink="http://www.w3.org/1999/xlink" x="0px" y="0px"
	 viewBox="0 0 1814 1680.5" style="enable-background:new 0 0 1814 1680.5;" xml:space="preserve">
<style type="text/css">
	.st0{fill:url(#SVGID_1_);}
	.st1{fill:url(#SVGID_00000131358282944776430750000018178290682948695691_);}
	.st2{fill:#1B1F1F;}
	.st3{fill:#FFFFFF;}
	.st4{fill:#00877B;}
	.st5{fill:url(#SVGID_00000090993530675242232410000000199046259659210663_);}
	.st6{fill:none;stroke:#1B1F1F;stroke-width:24;stroke-miterlimit:10;}
	.st7{fill:#06AB9D;}
	.st8{fill:#4B4B4B;}
	.st9{fill:none;stroke:#06AB9D;stroke-width:17;stroke-miterlimit:10;}
</style>
<g id="Fond">
</g>
<g id="Texte">
	<path class="st7" d="M770.1,1351.3c-11.7,0-22.8,0.6-33.7-0.5c-2.3-0.2-5.6-6.4-5.7-9.9c-0.2-14.7,1.2-29.4,1.2-44.1
		c0-31.3-0.6-62.6-0.7-93.9c0-62.5,0.1-125,0.4-187.4c0-3.2,1.4-6.4,2.4-10.4c11.6,0,22.6,0,35.2,0c0.9,4.8,2.5,9.4,2.5,14.1
		c0.1,43.4,0,86.8,0,130.2c0,3.9,0.6,7.8,1.3,14.9c7.9-3.1,14-5.5,20.1-7.8c6.1-2.3,12.1-5.8,18.4-6.7c8.8-1.3,18.1,0.2,26.9-1
		c20-2.9,37.6,6.2,52.8,15.3c13.6,8.1,27.4,20.3,32,38c0.5,1.9,2.9,3.2,3.7,5.1c3,7.2,7.9,14.5,8.1,21.9c1.1,33.1,0.8,66.3,0.9,99.4
		c0,7.2,0,14.5,0,22.1c-14,0-25.6,0-38.1,0c-0.3-4-0.8-7.3-0.8-10.6c-0.1-28.8,0-57.7-0.3-86.5c-0.4-32.2-15.3-52.4-43.5-62.9
		c-23.1-8.6-50.4-1.9-68.5,21.2c-11.1,14.1-12.8,28.8-12.5,45.4c0.4,27.8-0.3,55.7-0.7,83.6C771.5,1343.7,770.7,1346.7,770.1,1351.3
		z"/>
	<path class="st7" d="M1588,1350.2c-12.4,0-24.4,0-38.5,0c0-14.8,0-29.3,0-43.7c-0.1-18.6,0.7-37.3-0.5-55.8
		c-2.2-37.1-24.5-62.8-62-64.2c-22.3-0.8-46.1,12.4-56.9,38.1c-10.3,24.6-4.7,50.1-6.3,75.2c-1,16.6-0.2,33.3-0.2,51.4
		c-13.9,0-26,0-39.1,0c0-117.3,0-232.7,0-348.1c12.8,0.6,24.3,1.1,37.2,1.7c0.7,5.1,1.9,9.8,1.9,14.5c0.1,43.4,0,86.9,0.1,130.3
		c0,3.9,0.7,7.7,1.3,14.6c8.1-3.3,14.4-5.7,20.6-8.3c4.6-1.9,9-5.6,13.6-5.8c17.9-0.7,35.8-0.8,53.7-0.1c5,0.2,9.7,5.2,14.9,6.4
		c18.1,4.3,30.6,17.3,40,30.8c10.1,14.5,20.6,29.8,20.1,50.2c-1,34,0.8,68.1,1.2,102.1C1589.4,1342.8,1588.6,1345.8,1588,1350.2z"/>
	<path class="st7" d="M1119.7,1162.1c0.9-5.1,1.4-7.8,2.2-12.1c11.8,0,23.9,0,37.9,0c0,66.5,0,133.3,0,200.8c-12.7,0-24.9,0-37.6,0
		c-0.7-4.8-1.4-9.3-2.2-14.3c-17.5,5.1-34.3,12.5-51.6,14.3c-17.4,1.8-35.3-2.1-50.7-3.3c-11.4-9-21.5-15.3-29.4-23.7
		c-14.3-15.3-30.2-30.2-29.5-54c0.4-13.8,0-27.7-0.2-41.6c-0.3-17.8,11.7-29.8,20.6-43c11.2-16.6,28.3-26.7,46.6-33.4
		c10.4-3.8,22.5-3.3,33.9-3.5c16-0.3,31.9,0.2,45.7,11C1108.5,1161.9,1114.3,1161.2,1119.7,1162.1z M1004.2,1283.5
		c17.8,15.4,30.5,29.1,52.2,29.4c21.8,0.3,38.3-9.7,50.6-24.7c16.7-20.4,26.8-44.1-8.9-86.7c-13.1-15.6-51.5-19.4-73.7-4.4
		c-16.3,10.9-27,28.6-29.2,47.2C993.7,1258,1001.5,1272.8,1004.2,1283.5z"/>
	<path class="st7" d="M205.9,1163.6c6.5-3.6,12.9-7.6,19.7-10.8c3.7-1.8,8.1-3.1,12.2-3.1c17-0.3,34.1-0.1,51.1,0.2
		c2.9,0.1,5.9,1.3,8.6,2.7c7.8,3.8,15.4,7.9,24.3,12.5c1.2-5.9,1.8-9.1,2.9-14.4c12.4,0,25.2,0,40.7,0c-1.6,66,0.9,133.2-1.1,200.5
		c-14.3,0-25.7,0-37.6,0c-1.4-4.7-2.5-8.7-4.3-14.9c-4,1.1-9.3,0.9-11.8,3.5c-10.5,11.2-24.4,11-37.4,11.3
		c-14.3,0.3-28.6-2.4-42.9-3.8c-2.7-0.2-5.4,0-7.6,0c-32.6-21.1-59.3-46.2-63.7-87.4C154.7,1218.4,174.8,1188.3,205.9,1163.6z
		 M202,1269.8c10.7,21.7,24.9,34.3,43.2,40.7c19.8,6.9,38.1,0.4,54.8-11.1c23.7-16.3,32.4-50.1,17.7-77.4
		c-13.9-25.8-41-42.9-71.3-32.9C216.3,1199.1,192.8,1223.1,202,1269.8z"/>
	<path class="st7" d="M1770.9,1163c1.7-6,2.6-9.5,4-14.4c5.4,0,10.9,0,16.3,0c5.6,0,11.1,0,18.5,0c1.2,4,3.5,8.1,3.6,12.2
		c0.3,46.5,0.3,93.1,0.3,139.6c0,13,0.1,26-0.1,39c-0.1,3.6-1.1,7.1-1.8,11.2c-12.5,0-24.1,0-36.6,0c-0.8-4.4-1.6-8.8-2.9-15.7
		c-5.6,1.9-11.3,2.6-15.2,5.5c-21,15.5-44.7,12.7-67.6,9c-14.3-2.4-27.9-10.3-41.4-16.6c-3.6-1.7-5.7-6.5-8.7-9.7
		c-15.3-16.3-28.4-33.7-28.9-57.3c-0.3-14.2-1.2-28.7,0.6-42.7c2.8-21,18.1-35,31.4-50.2c10.8-12.4,26.7-14.9,40.1-21.6
		c8.9-4.4,21.3-2.2,32.1-2.3c14.1-0.2,28-0.1,40.3,9.1C1759,1161.1,1765.1,1161.3,1770.9,1163z M1746.3,1198.5
		c-17.9-8.3-35.3-16.6-55.6-8.2c-19.5,8-30.6,22.3-39.1,41c-8.4,18.6-1,34.4,5.4,50.5c6,14.7,21.7,19.4,33.3,28.2
		c10.7,8.1,52.4,0.3,62.4-13c8.7-11.6,18.5-24.7,20.4-38.2C1776.6,1234.3,1764.9,1213.7,1746.3,1198.5z"/>
	<path class="st7" d="M0.4,1046.2c13,0,25.2,0,38.6,0c0,57,0,113.3,0,170.3c3.6,0.4,6.2,0.7,6.9,0.8c11.1-9.2,21.1-17,30.7-25.3
		c15.3-13.2,30.2-26.7,45.5-39.8c2.1-1.8,5.6-2.5,8.5-2.5c17.5-0.2,35-0.1,54.6,2.5c-6.4,5.8-12.8,11.7-21.1,19.2
		c-0.9,0.3-4.1,1.4-7.3,2.5c0.4,0.5,0.8,1,1.2,1.5c-14.1,11.6-28.2,23.2-45.5,37.5c-5.5,4.2-13.8,11.5-23.2,17.3
		c-10.3,6.4-16.7,17-14.2,27.9c0.6,2.6,1.9,5.5,3.8,7.1c13.6,11.3,27.4,22.3,41.4,33.2c2.8,2.2,6.6,3,9.2,5.2
		c18.5,14.9,37,29.8,55.6,44.7c-0.4,1.1-0.8,2.2-1.2,3.4c-7.2,0-14.4,0.5-21.5-0.1c-14-1.2-28.7,3.9-41.7-4.7
		c-4.5-3-8.6-6.6-12.7-10.3c-12.6-11.3-25.2-22.6-39.1-32.6c-8-7.7-15.9-15.3-25.8-24.8c-1.4,5.5-3.4,10.1-3.5,14.7
		c-0.4,17.6-0.2,35.3-0.2,53.8c-11.9,7.9-25,1.9-39,4.3C0.4,1249.8,0.4,1149.2,0.4,1046.2z"/>
	<path class="st7" d="M393.8,1045.6c13.3,0,26.4,0,41.5,0c0,34,0,67.8,0,103.4c30.7,0,59.3,0,88.8,0c0,12.7,0,23.6,0,37.3
		c-29.7,0-59,0-87.5,0c-5.4,19.4-2.6,121.5,1.7,126.1c17.3,0,33.8,0,50.9,0c0,12.5,0.6,24.1-0.4,35.6c-0.2,2.6-5.6,6.7-8.8,6.9
		c-17.3,0.8-34.7,1-52.1,0.6c-17.5-0.4-30.9-9.3-33.5-23.4c-1.7-9.2-0.5-19-0.5-28.5c-0.1-75-0.1-150.1-0.1-225.1
		C393.8,1068.1,393.8,1057.8,393.8,1045.6z"/>
	<path class="st7" d="M1228.6,1161.8c53.4-26.6,102.2-16.3,144.7,29.5c-11.6,7.3-23.5,14.8-35.7,22.5c-5.1-3.4-10-6-14.1-9.5
		c-23.3-20.2-48.6-23.1-74.8-8.1c-22.2,12.7-33.7,45.4-27,70.4c8.7,32.6,46.6,52,75.9,45c9.4-2.3,17.6-10.3,26.1-16.1
		c3.7-2.5,6.7-6,11.3-10.2c10.3,7.1,20.1,13.8,29.7,20.4c-2.8,12.2-33.5,37.1-45.4,40.3c-53.4,14.3-97,1.6-127-46.3
		c-14.6-23.4-15.8-51.1-10.6-76.6C1186.8,1198.2,1204.3,1178.6,1228.6,1161.8z"/>
	<path class="st7" d="M722.5,1190.3c-14.7,8.4-27.9,15.9-41.3,23.6c-5.9-5.7-11.2-10.7-16.5-15.7c-31.3-17.2-60.2-15.5-88.2,17
		c-14.2,19.9-17,46.2,1.2,70.6c9.8,13.3,23.9,24.5,42.2,26.5c17.3,1.8,33.8-0.1,47-13.9c12.4-13.9,16.5-14.2,30.9-1
		c4.2,3.8,8.7,7.2,15.5,12.8c-9.9,9.1-17.8,17.8-27.1,24.8c-18.9,14.2-41,17.1-64.1,16.5c-27.2-0.7-48.7-12.5-67.9-31.3
		c-29.2-28.5-31.2-63.7-23.4-99.5c5.2-24,21.4-43.8,42.2-57.7c21.3-14.2,45.7-15.1,70.8-14.1c27.4,1.1,46.6,16.1,65.8,32.4
		C713,1184.2,717,1186.5,722.5,1190.3z"/>
	<path class="st8" d="M906.3,1511.7c0-19.9-0.1-37.1,0-54.3c0.1-15.1,3.6-18.4,18.8-18.3c8.1,0.1,16.3,0,24.9,0c0,6.8,0,11,0,16.3
		c-7.7,1.1-15.3,2.3-23.3,3.4c0,52.1,0,102.5,0,154.3c-6.3,0.4-12,0.8-17.6,1.1c-2.2-2.7-3.9-4.8-6.8-8.3
		c-23.6,10.5-47.3,12.9-68.8-7c-12.1-11.2-18.2-24.9-18.2-41c0-22.3,10.2-38.4,30.2-48.7C865.2,1499.1,884.3,1503.1,906.3,1511.7z
		 M870.3,1592.2c19.4,2.6,36.6-18.6,36.2-33.1c-0.4-16.2-14.7-35.5-34.3-35.3c-19.8,0.3-36.5,15.6-36.5,34.2
		C835.6,1577.3,850.4,1591.9,870.3,1592.2z"/>
	<path class="st8" d="M1139.7,1602.7c0,26.9,0,51.7,0,77.4c-7.5,0-13,0-19.7,0c0-61.9,0-123,0-185c6.1,0,12.3,0,18.8,0
		c0.4,5.1,0.7,9.6,1.1,16c29.6-11.1,57.6-14.6,78.6,12.9c9.1,11.9,13.6,26.4,10.7,41.8c-3.8,19.9-14.3,34.5-33.5,43.3
		C1176.3,1618.1,1159.1,1612.6,1139.7,1602.7z M1162.8,1591.2c12.6,1.6,27,2.7,38.3-10.8c7.8-9.3,11.3-28.6,5.3-37.9
		c-15.4-24.1-47.4-28.6-63.8,1.2c-6.2,11.2-3.2,30.1,5.9,36.4C1152.7,1582.9,1156.5,1586.2,1162.8,1591.2z"/>
	<path class="st8" d="M1574.5,1568.5c-27.3,0-54.7,0-83.5,0c1,4.8,1.6,7.9,2.2,10.9c3.6,1.2,6.5,2.2,9.5,3.2
		c9.2,12.4,20.2,13.2,43.1,2.3c4.5,3.5,9.5,7.5,14.4,11.4c-12.3,18.2-44.8,23.2-63.9,11.3c-28.9-18.1-37.5-50.4-21-79.2
		c11.3-19.7,47.7-32.4,66-23.1C1569.6,1519.6,1584.6,1546.7,1574.5,1568.5z M1492.2,1546.6c20.6,0,40.4,0,60.2,0
		c-0.1-11.4-11-21-24.7-22.7C1511.5,1521.8,1495.6,1531,1492.2,1546.6z"/>
	<path class="st8" d="M1029.7,1599.4c-22.4,19.5-51.5,19.3-73.6,0c-20.7-18.1-24.3-47.8-8.7-72.1c13.6-21.3,45-31.6,66.3-21.5
		c24.4,11.6,39,34.4,32.8,62.4c-28,0-56.7,0-85.8,0c3.9,20.6,31.8,29.4,47.2,21.1C1019,1583.3,1025.3,1586.2,1029.7,1599.4z
		 M1022.8,1548c0.6-11.8-7.8-19.9-21.4-23.4c-15.3-3.9-32.6,4.1-40.6,21C981.8,1550.5,1002.2,1547.3,1022.8,1548z"/>
	<path class="st8" d="M620.4,1568c-28.5,0-56.6,0-84.7,0c-0.7,1.5-1.5,2.9-2.2,4.4c6.6,6.5,13.2,13,21.4,21
		c11.2-1.9,23-3.9,34.8-5.8c0.2-1.1,0.4-2.3,0.7-3.4c4.7,4.4,9.4,8.8,14.1,13.1c-16.3,18.9-46,21.2-67.1,8.3
		c-28.3-17.4-30.7-52.8-21.1-72.2c11.9-24.2,44.3-37.5,68.9-28.1C610.2,1514.8,623.5,1537.6,620.4,1568z M534.1,1544.7
		c20.7,7.2,41.1,1.1,61.3,3.7c1.7-12.7-5.5-18.3-13.9-21.4C561.5,1519.5,545.3,1525.3,534.1,1544.7z"/>
	<path class="st8" d="M291.9,1567.7c3.2,13.9,11.5,20.1,20.1,22.7c9.8,3,21.4,4.8,32.5-6.8c5.5,4,11.6,8.4,17.8,13
		c-18.2,20.2-47.2,22.2-66.9,8.9c-26.1-17.5-34-49.7-19.4-75c13.6-23.7,45.5-35.4,68.3-25.1c23.6,10.6,40.3,40.3,32.9,62.2
		C349.9,1567.7,321.8,1567.7,291.9,1567.7z M354.5,1547.3c-0.8-13.4-18.3-26.2-32-24.9c-15,1.4-29.6,14-27.8,24.9
		C314.3,1547.3,334.1,1547.3,354.5,1547.3z"/>
	<path class="st8" d="M1346.4,1593c9.6-16,5-24.7-10.6-25.3c-10.2-0.4-20.4,0-30.7-0.1c-16.5-0.2-31.4-13-31.7-27.2
		c-0.4-21.7,10.6-36,29.7-36.7c21-0.7,42.1-0.3,63.2-0.3c2,0,4.1,1,6.8,1.7c0,5,0,9.8,0,15.7c-4.1,0.5-8,1.2-11.8,1.2
		c-16.7,0.1-33.5-0.1-50.2,0c-11.7,0.1-17.9,6.5-17.2,20.7c7.2,1.6,15.2,4.1,23.3,5.2c10.3,1.4,20.8,1.1,31.1,2.6
		c13.5,2,21.2,9.4,23.6,21.1c3,15.2-1.7,29.2-12.8,36c-4.6,2.8-10.1,5.6-15.3,5.8c-21,0.7-42.1,0.3-63.2,0.3c-1.8,0-3.5-0.8-5.9-1.3
		c0-5.9,0-11.6,0-19.5C1299,1593,1323.2,1593,1346.4,1593z"/>
	<path class="st8" d="M391,1603.8c5.3,4.3,10.5,8.7,13.6,11.2c5,15.1,9.3,27.8,13.9,41.6c10,1.8,18.9,4.6,27.8,4.9
		c15.3,0.5,29-10.4,30.5-25.8c1.9-20.9,1.9-42,2.2-63.1c0.3-19.5-0.1-39.1-0.1-58.6c0-3,0.5-6,0.9-9.8c6.4,0,12,0,18.4,0
		c0.4,3.2,1,5.9,1,8.6c0,38.4,0.5,76.9-0.4,115.3c-1,41.2-37.6,62.2-71.9,52.1c-21.2-6.2-33.5-20.9-36.5-42.8
		c-1.5-10.7-1.8-21.6-2.7-32.4C388.7,1604.7,389.9,1604.2,391,1603.8z"/>
	<path class="st8" d="M724.6,1504.3c7.2,0,12.8,0,19.7,0c-1.1,29.3,5.3,58.6-11.2,84.6c-12.4,19.4-31.4,28.3-54.2,24.2
		c-20.9-3.7-35.8-17.4-39.9-38.1c-4.5-22.5-5.4-45.7-8-69.9c9.4,0,15.5,0,20.8,0c1.6,20.5,2.1,39.4,4.8,57.9
		c2.6,18.5,16.6,33.3,39.7,28.8c11.6-2.3,24.8-16.8,26.2-31.3c1.3-13.8,1.4-27.8,2-41.7C724.7,1514.6,724.6,1510.3,724.6,1504.3z"/>
	<path class="st8" d="M1392.2,1447c6.5,0,12.5,0,19.7,0c0,18.6,0,36.4,0,56.3c16.8,0,32.2,0,48.4,0c0,7.1,0,12.1,0,18.9
		c-15.8,0-30.7,0-47,0c0,23.7,0,45.7,0,69.2c8.9,0,17.7,0,28,0c0.5,7.7,0.9,14,1.4,21.7c-15.1,0-29.5,0.9-43.6-0.7
		c-3-0.3-6.9-9.3-7.2-14.4c-0.9-18-0.2-36.1-0.5-54.1c-0.3-26-1.1-51.9-1.4-77.9C1390.1,1460.1,1391.3,1454.4,1392.2,1447z"/>
	<path class="st8" d="M238,1447c6.1,0,11.7,0,18.1,0c0,55.3,0,109.7,0,165.5c-4.4,1.1-9.3,2.4-15.5,4c-1.5-4-3.7-7.2-3.7-10.4
		c-0.2-50.9-0.1-101.7-0.1-152.6C236.8,1451.5,237.5,1449.5,238,1447z"/>
	<path class="st8" d="M1241.9,1504.4c7,0,12.6,0,18.9,0c0,37.1,0,73.2,0,110.1c-6.7-0.5-12.6-0.9-18.9-1.4
		C1241.9,1576.4,1241.9,1541,1241.9,1504.4z"/>
	<path class="st8" d="M1251.2,1471.8c10,4.4,12.7,9.7,7.8,17.9c-4,0.8-8.1,1.5-13.2,2.5c-1.9-2.9-4.1-6.3-7.2-10.9
		C1243.3,1477.7,1247.4,1474.6,1251.2,1471.8z"/>
	<path class="st8" d="M478.4,1480.4c2.2-2.1,4.3-4,6.1-5.7c13.2,0.1,16.5,5.3,10.8,16.1C484.2,1494.1,480.1,1491.7,478.4,1480.4z"/>
	<circle class="st7" cx="1023.5" cy="314" r="15"/>
	<path class="st7" d="M555.7,800.6c-10.1,8.7-20.4,17.3-30,26.6c-11.3,11-21.8,22.7-32.7,34.1c-3.9,4.1-7.8,8.3-11.8,12.4
		c0.7,0.8,1.4,1.7,2.2,2.5c9.9-7.2,19.7-14.5,30.8-22.6c0.8-1,2.2-3.8,4.5-5.3c11.6-7.8,23.3-15.6,35.4-22.6
		c2.5-1.4,7.8-0.9,10.1,0.9c14.2,11.5,27.5,24,41.8,35.4c14.4,11.5,29.6,22.1,44.6,32.9c8,5.8,16.1,11.4,26.3,18.6
		c175.9,86.5,348.3,76.7,511.5-32.6c104.1-82.3,169.7-183.8,191-313.8c21.6-132-11.4-249.4-85.9-359.3c-1.1-0.6-3.8-2-5.2-2.7
		c-13.4-27.3-38-43.5-60.3-71.8c-27.6-19.2-61.4-42.8-91.1-63.6C956-15.9,786.6-4.7,625.3,104.8c-2.4,3.5-5.9,5.5-9.1,8
		c-12.9,10.1-26.2,19.8-38.4,30.8c-8.8,7.9-16.1,17.5-24,26.4c-11.9,13.5-24.6,26.5-35.3,40.9c-10.3,13.9-19,29.1-27.4,44.2
		c-7.7,13.8-14.6,28.1-21,42.5c-5,11.3-7,24.3-13.5,34.5c-13,20.7-15.5,44.8-19.2,67c-6.4,38.5-6.6,78.3-7.1,117.5
		c-0.3,23.2,2.3,46.8,6,69.8c2.7,16.7,9.4,32.8,15.7,53.9c4.1,6.4,9.7,18.3,7.4,30.9c-3.9,21-8.3,42.2-15.6,62.2
		c-8.5,23.6-8.6,48.3-13.6,72.3c-2.4,11.2-3.3,22.8-3.5,34.3c-0.3,13.4,0.8,26.8,1.3,40.2c0.7-0.1,1.3-0.1,2-0.2
		c2.7-18.6,5.4-37.2,8.1-55.8c15.6-63,36.8-123.6,75.1-177c24.3-33.9,52.2-64.6,80.9-95.6c-2.4,0.3-4.7,0.4-7.2,0.4
		c-35.1,0-63.5-28.4-63.5-63.5S551.9,425,587,425s63.5,28.4,63.5,63.5c0,8.1-1.5,15.8-4.3,23c3.9-2.2,7.1-4.1,10.3-6.1
		c22.3-13.9,44.2-28.4,66.9-41.6c13.1-7.6,27.2-13.6,41.3-19.4c16-6.5,32.3-12,48.6-17.7c14.7-5.1,29.2-10.1,45.2-11.2
		c10.5-0.7,20.7-7.5,30.9-11.5c-0.8-2-0.8-2.7-1.2-3.1c-0.9-0.8-2-1.5-3.1-2c-15.2-8.3-31-7.1-46.9-2.4
		c-43.8,12.9-88.4,11.2-132.7,5.3c-20.3-2.7-39.8-11.7-59.7-17.8c-2.9-0.9-6.1-1.4-8.9-2.5c-12.2-5-24.3-10.1-39.5-16.5
		c23.6-23,49.2-37.1,72.8-50.9c5.3-2.3,9-4,12.8-5.7c7.4-3.3,14.7-6.6,22-10c2-0.9,3.8-2.2,5.7-3c17.2-7.5,40.7-24.8,60.6-25.4
		c8.5-0.2,9,0,14.9-5.8c-19.8-2.2-39.1,8.7-56.1-7.4c-13.4-12.8-29.2-23.1-45.2-35.6c-11.1-13.7-23.4-27.7-34.4-42.8
		c-11.3-15.6-21.2-32.1-32.3-49.1c2.6-1.7,4.6-4.2,6.9-4.4c99.4-9.2,190.2,13.5,270.4,73.9c14.8,11.8,29.7,23.6,43.1,34.3
		c50.5,3,96.3,14.7,137.9,41.3c9.2,5.8,18.4,11.5,30.1,18.9c12.3,10.3,25.8,22.9,33,41.7c5.6,14.9,0.1,40.9-13.3,46.3
		c-12.1,4.9-24.5,9.1-36.8,13.8c-1.9,0.7-3.4,2.3-6.3,4.4c2.7,2.2,4.4,4.6,6.6,5.2c14.8,3.6,30,6,44.5,10.5
		c27.2,8.3,54,17.7,80.9,26.9c3.7,1.3,6.7,4.4,10.1,6.6c1.7,1.1,3.6,1.9,5.5,2.8c10.6,5.2,21.9,9.4,31.7,15.7
		c13.8,8.9,26.8,19.1,39.6,29.3c14.2,11.3,27.8,23.4,41.9,34.7c6.5,5.2,7.5,12.7,4.2,18.2c-2.4,4-10.1,6.9-15.4,6.8
		c-35.3-0.7-70.6-2.6-106-3.4c-16.9-0.4-33.9,0.9-50.8,1.2c-13.8,0.3-27.7-0.4-41.5,0.7c-26.4,2.1-52.8,4.9-79.1,8.1
		c-19,2.3-38.1,4.8-56.8,8.6c-19.8,4.1-39.4,9.3-58.8,15c-23.1,6.8-46,14.3-68.7,22.2c-14.6,5.1-28.7,11.5-42.9,17.5
		c-20,8.4-40.4,16-59.7,25.6c-20.6,10.3-40.5,22.1-60.2,34.1c-18.5,11.2-36.5,23.2-54.3,35.5c-14,9.7-27.4,20.1-40.7,30.8
		c-13.9,11.2-27.3,23-40.9,34.5C566.9,791.5,561.1,795.8,555.7,800.6 M1227.1,660.2c-20.4-4.6-40.6-10.6-61-15.3
		c-19.7-4.5-39.5-9.4-59.5-11.9c-38.9-4.8-77.9-8.4-116.9-11.9c-27.3-2.4-54.8-3.7-85.9-5.7c4.5-4,6.9-7.6,10.1-8.7
		c7.2-2.4,14.9-3.3,22.4-5.1c5-1.2,9.9-3,14.9-4.4c8.3-2.3,16.4-5,24.8-6.7c18.6-3.8,37.3-9.1,56.1-10c36.4-1.8,73-2.8,109.3-0.5
		c14,0.9,27.6,11.3,41.1,18c8.6,4.2,16.7,9.3,24.9,14.2c13.4,7.9,27.3,15.2,39.8,24.3c5.1,3.7,7.2,11.6,10.1,16.6
		C1247.3,665.5,1236.8,662.4,1227.1,660.2z"/>
	<path class="st9" d="M469.2,682c-25.5-58.7-39.7-123.4-39.7-191.5C429.5,225.1,644.6,10,910,10s480.5,215.1,480.5,480.5
		S1175.4,971,910,971c-141.2,0-268.3-60.9-356.2-158"/>
</g>
</svg>
